<?xml version="1.0" encoding="utf-8"?>
<!-- Generator: Adobe Illustrator 25.2.1, SVG Export Plug-In . SVG Version: 6.00 Build 0)  -->
<svg version="1.1" xmlns="http://www.w3.org/2000/svg" xmlns:xlink="http://www.w3.org/1999/xlink" x="0px" y="0px"
	 viewBox="0 0 1524.69 293.07" style="enable-background:new 0 0 1524.69 293.07;" xml:space="preserve">
<style type="text/css">
	.st0{display:none;fill:#29ABE0;}
	.st1{fill:#FFFFFF;}
	.st2{fill:#FF5E5B;}
	.st3{display:none;}
</style>
<g id="Layer_1">
	<path class="st0" d="M1473.52,293.07H51.18C22.91,293.07,0,270.15,0,241.89V51.18C0,22.91,22.91,0,51.18,0h1422.34
		c28.27,0,51.18,22.91,51.18,51.18v190.71C1524.69,270.15,1501.78,293.07,1473.52,293.07z"/>
	<g>
		<path class="st1" d="M506.34,141.4c2.72,3.49,4.08,8,4.08,13.52c0,9.66-2.76,16.4-8.28,20.22c-5.52,3.82-12.1,5.72-19.73,5.72
			h-30.33c-2.11,0-3.88-0.71-5.3-2.13c-1.42-1.42-2.13-3.19-2.13-5.3v-70.39c0-2.11,0.71-3.88,2.13-5.3
			c1.42-1.42,3.19-2.13,5.3-2.13h30.69c15.43,0,23.14,7.23,23.14,21.68c0,3.65-0.87,6.88-2.62,9.68c-1.75,2.8-4.24,5.01-7.49,6.64
			C500.11,135.31,503.62,137.91,506.34,141.4z M487.58,112.47c-1.67-1.66-4-2.5-7-2.5h-20.1v19h20.46c2.44,0,4.57-0.81,6.39-2.44
			c1.83-1.62,2.74-3.82,2.74-6.58C490.08,116.63,489.25,114.14,487.58,112.47z M491.36,163.81c2.15-2.03,3.23-4.99,3.23-8.89
			c0-4.79-1.26-7.92-3.78-9.38c-2.52-1.46-5.6-2.19-9.26-2.19h-21.07v23.5h21.92C486.22,166.85,489.21,165.84,491.36,163.81z"/>
		<path class="st1" d="M576.79,117.83c1.38,1.42,2.07,3.19,2.07,5.3v30.93c0,8.77-2.42,15.63-7.25,20.58
			c-4.83,4.95-11.71,7.43-20.64,7.43c-8.93,0-15.79-2.48-20.58-7.43c-4.79-4.95-7.19-11.81-7.19-20.58v-30.93
			c0-2.11,0.69-3.88,2.07-5.3c1.38-1.42,3.12-2.13,5.24-2.13c2.11,0,3.86,0.71,5.24,2.13c1.38,1.42,2.07,3.19,2.07,5.3v30.93
			c0,4.95,1.1,8.63,3.29,11.02c2.19,2.4,5.48,3.59,9.86,3.59c4.46,0,7.79-1.2,9.99-3.59c2.19-2.39,3.29-6.07,3.29-11.02v-30.93
			c0-2.11,0.69-3.88,2.07-5.3c1.38-1.42,3.12-2.13,5.24-2.13C573.67,115.7,575.41,116.41,576.79,117.83z"/>
		<path class="st1" d="M648.28,117.83c1.38,1.42,2.07,3.19,2.07,5.3v51.76c0,10.55-2.84,18.25-8.53,23.08
			c-5.68,4.83-13.28,7.25-22.77,7.25c-2.76,0-5.58-0.22-8.46-0.67c-2.88-0.45-5.22-1.04-7-1.77c-3.98-1.71-5.97-4.06-5.97-7.06
			c0-0.57,0.12-1.22,0.37-1.95c0.49-1.79,1.32-3.15,2.5-4.08c1.18-0.93,2.46-1.4,3.84-1.4c0.81,0,1.58,0.12,2.31,0.37
			c0.57,0.24,1.56,0.65,2.98,1.22c1.42,0.57,2.92,1.04,4.51,1.4c1.58,0.37,3.23,0.55,4.93,0.55c5.76,0,10-1.24,12.73-3.71
			c2.72-2.48,4.08-6.72,4.08-12.73v-1.22c-4.22,5.28-10.8,7.92-19.73,7.92c-4.22,0-7.96-1-11.21-2.98
			c-3.25-1.99-5.77-4.75-7.55-8.28c-1.79-3.53-2.68-7.57-2.68-12.12v-35.56c0-2.11,0.69-3.88,2.07-5.3
			c1.38-1.42,3.12-2.13,5.24-2.13c2.11,0,3.86,0.71,5.24,2.13c1.38,1.42,2.07,3.19,2.07,5.3v31.18c0,5.11,1.12,8.79,3.35,11.02
			c2.23,2.23,5.5,3.35,9.8,3.35c4.22,0,7.49-1.24,9.8-3.71c2.31-2.48,3.47-6.03,3.47-10.66v-31.18c0-2.11,0.69-3.88,2.07-5.3
			c1.38-1.42,3.12-2.13,5.24-2.13C645.16,115.7,646.9,116.41,648.28,117.83z"/>
		<path class="st1" d="M792.12,121.85c3.08,4.91,4.63,11.71,4.63,20.4v31.18c0,2.11-0.69,3.88-2.07,5.3
			c-1.38,1.42-3.13,2.13-5.24,2.13c-2.11,0-3.86-0.71-5.24-2.13c-1.38-1.42-2.07-3.19-2.07-5.3v-31.18c0-4.46-0.87-7.98-2.62-10.53
			c-1.75-2.56-4.81-3.84-9.19-3.84c-4.55,0-8.1,1.36-10.66,4.08c-2.56,2.72-3.84,6.15-3.84,10.29v31.18c0,2.11-0.69,3.88-2.07,5.3
			c-1.38,1.42-3.13,2.13-5.24,2.13c-2.11,0-3.86-0.71-5.24-2.13c-1.38-1.42-2.07-3.19-2.07-5.3v-31.18c0-4.46-0.87-7.98-2.62-10.53
			c-1.75-2.56-4.81-3.84-9.2-3.84c-4.55,0-8.1,1.36-10.66,4.08c-2.56,2.72-3.84,6.15-3.84,10.29v31.18c0,2.11-0.69,3.88-2.07,5.3
			c-1.38,1.42-3.13,2.13-5.24,2.13c-2.11,0-3.86-0.71-5.24-2.13c-1.38-1.42-2.07-3.19-2.07-5.3v-50.3c0-2.11,0.69-3.88,2.07-5.3
			c1.38-1.42,3.12-2.13,5.24-2.13c2.11,0,3.86,0.71,5.24,2.13c1.38,1.42,2.07,3.19,2.07,5.3v1.95c2.19-2.92,4.97-5.42,8.34-7.49
			c3.37-2.07,7.12-3.11,11.27-3.11c10.23,0,16.77,4.47,19.61,13.4c1.87-3.41,4.69-6.5,8.46-9.26c3.78-2.76,8.06-4.14,12.85-4.14
			C783.47,114.48,789.03,116.94,792.12,121.85z"/>
		<path class="st1" d="M868.72,151.51c-1.46,1.22-3.17,1.83-5.11,1.83h-40.19c0.97,4.79,3.21,8.55,6.7,11.27
			c3.49,2.72,7.43,4.08,11.81,4.08c3.33,0,5.93-0.3,7.79-0.91c1.87-0.61,3.35-1.26,4.45-1.95c1.1-0.69,1.85-1.16,2.25-1.4
			c1.46-0.73,2.84-1.1,4.14-1.1c1.71,0,3.17,0.61,4.38,1.83c1.22,1.22,1.83,2.64,1.83,4.26c0,2.19-1.14,4.18-3.41,5.97
			c-2.27,1.87-5.32,3.45-9.13,4.75c-3.82,1.3-7.67,1.95-11.57,1.95c-6.82,0-12.77-1.42-17.84-4.26c-5.08-2.84-8.99-6.76-11.75-11.75
			c-2.76-4.99-4.14-10.61-4.14-16.87c0-6.98,1.46-13.11,4.38-18.39c2.92-5.28,6.78-9.32,11.57-12.12c4.79-2.8,9.91-4.2,15.35-4.2
			c5.36,0,10.41,1.46,15.16,4.38c4.75,2.92,8.54,6.86,11.39,11.81c2.84,4.95,4.26,10.31,4.26,16.08
			C870.95,148.7,870.18,150.29,868.72,151.51z M823.54,141.15h31.91v-0.85c-0.33-3.41-1.99-6.33-4.99-8.77
			c-3-2.44-6.42-3.65-10.23-3.65C830.8,127.88,825.24,132.3,823.54,141.15z"/>
		<path class="st1" d="M975.28,116.55c1.38,1.38,2.07,3.17,2.07,5.36v51.52c0,2.11-0.69,3.88-2.07,5.3
			c-1.38,1.42-3.13,2.13-5.24,2.13c-2.11,0-3.84-0.69-5.18-2.07c-1.34-1.38-2.05-3.12-2.13-5.24c-2.03,2.36-4.77,4.37-8.22,6.03
			c-3.45,1.66-7.08,2.5-10.9,2.5c-5.6,0-10.68-1.44-15.22-4.32c-4.55-2.88-8.14-6.88-10.78-12c-2.64-5.11-3.96-10.92-3.96-17.42
			c0-6.49,1.3-12.32,3.9-17.48c2.6-5.16,6.15-9.17,10.66-12.06c4.51-2.88,9.48-4.32,14.92-4.32c3.9,0,7.55,0.71,10.96,2.13
			c3.41,1.42,6.29,3.23,8.65,5.42v-0.12c0-2.11,0.69-3.88,2.07-5.3c1.38-1.42,3.12-2.13,5.24-2.13
			C972.16,114.48,973.9,115.17,975.28,116.55z M958.35,162.89c3.33-3.86,4.99-8.71,4.99-14.55s-1.67-10.72-4.99-14.61
			c-3.33-3.9-7.63-5.85-12.91-5.85c-5.2,0-9.46,1.95-12.79,5.85c-3.33,3.9-4.99,8.77-4.99,14.61s1.64,10.7,4.93,14.55
			c3.29,3.86,7.57,5.79,12.85,5.79C950.72,168.68,955.02,166.75,958.35,162.89z"/>
		<path class="st1" d="M1072.35,117.71c4.22,2.15,6.33,5.01,6.33,8.59c0,1.79-0.53,3.35-1.58,4.69c-1.06,1.34-2.44,2.01-4.14,2.01
			c-1.3,0-2.36-0.18-3.17-0.55c-0.81-0.37-1.6-0.85-2.38-1.46c-0.77-0.61-1.52-1.12-2.25-1.52c-0.81-0.41-2.01-0.77-3.59-1.1
			c-1.58-0.32-2.86-0.49-3.84-0.49c-6.09,0-10.86,1.89-14.31,5.66c-3.45,3.78-5.18,8.71-5.18,14.8c0,5.85,1.75,10.7,5.24,14.55
			c3.49,3.86,7.96,5.79,13.4,5.79c3.98,0,6.94-0.49,8.89-1.46c0.49-0.24,1.16-0.67,2.01-1.28c0.85-0.61,1.64-1.08,2.38-1.4
			c0.73-0.32,1.62-0.49,2.68-0.49c2.03,0,3.63,0.65,4.81,1.95c1.18,1.3,1.77,2.96,1.77,4.99c0,1.95-1.14,3.78-3.41,5.48
			c-2.27,1.71-5.28,3.07-9.01,4.08c-3.74,1.01-7.71,1.52-11.93,1.52c-6.25,0-11.75-1.46-16.5-4.38s-8.42-6.96-11.02-12.12
			c-2.6-5.15-3.9-10.9-3.9-17.23c0-6.58,1.36-12.42,4.08-17.54c2.72-5.12,6.52-9.11,11.39-12c4.87-2.88,10.39-4.32,16.56-4.32
			C1062.56,114.48,1068.12,115.56,1072.35,117.71z"/>
		<path class="st1" d="M1148.22,165.82c-2.92,5.16-6.92,9.16-12,12c-5.08,2.84-10.66,4.26-16.75,4.26c-6.17,0-11.77-1.42-16.81-4.26
			c-5.04-2.84-9.01-6.84-11.93-12c-2.92-5.15-4.38-10.98-4.38-17.48c0-6.49,1.46-12.32,4.38-17.48c2.92-5.16,6.9-9.17,11.93-12.06
			c5.03-2.88,10.64-4.32,16.81-4.32c6.09,0,11.67,1.44,16.75,4.32c5.07,2.88,9.07,6.9,12,12.06c2.92,5.16,4.38,10.98,4.38,17.48
			C1152.61,154.84,1151.14,160.66,1148.22,165.82z M1135.49,137.68c-1.67-3.12-3.9-5.54-6.7-7.25s-5.91-2.56-9.32-2.56
			c-3.41,0-6.52,0.85-9.32,2.56s-5.04,4.12-6.7,7.25c-1.67,3.13-2.5,6.68-2.5,10.66c0,3.98,0.83,7.51,2.5,10.6
			c1.66,3.09,3.9,5.48,6.7,7.19s5.91,2.56,9.32,2.56c3.41,0,6.52-0.85,9.32-2.56s5.03-4.1,6.7-7.19c1.66-3.08,2.5-6.62,2.5-10.6
			C1137.99,144.36,1137.16,140.81,1135.49,137.68z"/>
		<path class="st1" d="M1190.24,106.02c-1.14,1.58-1.71,3.31-1.71,5.18v5.72h11.08c1.95,0,3.57,0.63,4.87,1.89
			c1.3,1.26,1.95,2.86,1.95,4.81s-0.65,3.55-1.95,4.81c-1.3,1.26-2.92,1.89-4.87,1.89h-11.08v43.11c0,2.11-0.69,3.88-2.07,5.3
			c-1.38,1.42-3.13,2.13-5.24,2.13c-2.11,0-3.86-0.71-5.24-2.13c-1.38-1.42-2.07-3.19-2.07-5.3v-43.11h-6.58
			c-1.95,0-3.57-0.63-4.87-1.89c-1.3-1.26-1.95-2.86-1.95-4.81s0.65-3.55,1.95-4.81c1.3-1.26,2.92-1.89,4.87-1.89h6.58v-5.6
			c0-6.09,2.09-11.04,6.27-14.86c4.18-3.81,10.21-5.72,18.09-5.72c3,0,5.62,0.61,7.86,1.83c2.23,1.22,3.35,3.09,3.35,5.6
			c0,1.95-0.57,3.53-1.7,4.75c-1.14,1.22-2.52,1.83-4.14,1.83c-0.41,0-0.83-0.04-1.28-0.12c-0.45-0.08-0.91-0.16-1.4-0.24
			c-1.95-0.49-3.57-0.73-4.87-0.73C1193.32,103.64,1191.37,104.43,1190.24,106.02z M1241.02,106.02c-1.14,1.58-1.71,3.31-1.71,5.18
			v5.72h11.08c1.95,0,3.57,0.63,4.87,1.89c1.3,1.26,1.95,2.86,1.95,4.81s-0.65,3.55-1.95,4.81c-1.3,1.26-2.92,1.89-4.87,1.89h-11.08
			v43.11c0,2.11-0.69,3.88-2.07,5.3c-1.38,1.42-3.13,2.13-5.24,2.13c-2.11,0-3.86-0.71-5.24-2.13c-1.38-1.42-2.07-3.19-2.07-5.3
			v-43.11h-6.58c-1.95,0-3.57-0.63-4.87-1.89c-1.3-1.26-1.95-2.86-1.95-4.81s0.65-3.55,1.95-4.81c1.3-1.26,2.92-1.89,4.87-1.89h6.58
			v-5.6c0-6.09,2.09-11.04,6.27-14.86c4.18-3.81,10.21-5.72,18.09-5.72c3,0,5.62,0.61,7.86,1.83c2.23,1.22,3.35,3.09,3.35,5.6
			c0,1.95-0.57,3.53-1.71,4.75c-1.14,1.22-2.52,1.83-4.14,1.83c-0.41,0-0.83-0.04-1.28-0.12c-0.45-0.08-0.91-0.16-1.4-0.24
			c-1.95-0.49-3.57-0.73-4.87-0.73C1244.11,103.64,1242.16,104.43,1241.02,106.02z"/>
		<path class="st1" d="M1322.5,151.51c-1.46,1.22-3.17,1.83-5.11,1.83h-40.19c0.97,4.79,3.21,8.55,6.7,11.27
			c3.49,2.72,7.43,4.08,11.81,4.08c3.33,0,5.93-0.3,7.79-0.91c1.87-0.61,3.35-1.26,4.45-1.95c1.1-0.69,1.85-1.16,2.25-1.4
			c1.46-0.73,2.84-1.1,4.14-1.1c1.71,0,3.17,0.61,4.38,1.83c1.22,1.22,1.83,2.64,1.83,4.26c0,2.19-1.14,4.18-3.41,5.97
			c-2.27,1.87-5.32,3.45-9.13,4.75c-3.82,1.3-7.67,1.95-11.57,1.95c-6.82,0-12.77-1.42-17.84-4.26c-5.08-2.84-8.99-6.76-11.75-11.75
			c-2.76-4.99-4.14-10.61-4.14-16.87c0-6.98,1.46-13.11,4.38-18.39c2.92-5.28,6.78-9.32,11.57-12.12c4.79-2.8,9.91-4.2,15.35-4.2
			c5.36,0,10.41,1.46,15.16,4.38c4.75,2.92,8.54,6.86,11.39,11.81c2.84,4.95,4.26,10.31,4.26,16.08
			C1324.73,148.7,1323.96,150.29,1322.5,151.51z M1277.32,141.15h31.91v-0.85c-0.33-3.41-1.99-6.33-4.99-8.77
			c-3-2.44-6.42-3.65-10.23-3.65C1284.58,127.88,1279.02,132.3,1277.32,141.15z"/>
		<path class="st1" d="M1393.14,151.51c-1.46,1.22-3.17,1.83-5.11,1.83h-40.19c0.97,4.79,3.21,8.55,6.7,11.27
			c3.49,2.72,7.43,4.08,11.81,4.08c3.33,0,5.93-0.3,7.79-0.91c1.87-0.61,3.35-1.26,4.45-1.95c1.1-0.69,1.85-1.16,2.25-1.4
			c1.46-0.73,2.84-1.1,4.14-1.1c1.71,0,3.17,0.61,4.38,1.83c1.22,1.22,1.83,2.64,1.83,4.26c0,2.19-1.14,4.18-3.41,5.97
			c-2.27,1.87-5.32,3.45-9.13,4.75c-3.82,1.3-7.67,1.95-11.57,1.95c-6.82,0-12.77-1.42-17.84-4.26c-5.08-2.84-8.99-6.76-11.75-11.75
			c-2.76-4.99-4.14-10.61-4.14-16.87c0-6.98,1.46-13.11,4.38-18.39c2.92-5.28,6.78-9.32,11.57-12.12c4.79-2.8,9.91-4.2,15.35-4.2
			c5.36,0,10.41,1.46,15.16,4.38c4.75,2.92,8.54,6.86,11.39,11.81c2.84,4.95,4.26,10.31,4.26,16.08
			C1395.37,148.7,1394.6,150.29,1393.14,151.51z M1347.95,141.15h31.91v-0.85c-0.33-3.41-1.99-6.33-4.99-8.77
			c-3-2.44-6.42-3.65-10.23-3.65C1355.22,127.88,1349.66,132.3,1347.95,141.15z"/>
	</g>
	<g id="layer1_3_" transform="translate(-37.579964,-135.49927)">
		<g id="g40_3_" transform="matrix(1.1421528,0,0,-1.1421528,265.93398,460.73095)">
			<g id="g4184_3_">
				<path id="path38_3_" class="st1" d="M63.7,148.86c-7.53-0.94-13.64-0.23-13.64-0.23v46.09h9.26c6.12,0,12.03-2.55,16.02-7.19
					c2.81-3.27,5.06-7.86,5.06-14.21C80.4,157.8,72.4,151.69,63.7,148.86 M103.35,181.22c-2.7,14.27-10.38,23.16-18.26,28.66
					c-8.14,5.68-17.89,8.61-27.82,8.61H-83.66c-4.9,0-6.78-4.79-6.8-7.18c0-0.31,0.01-1.56,0.01-1.56s-0.23-62.35,0.21-95.65
					c1.33-19.66,21.03-19.65,21.03-19.65s64.31,0.19,95.15,0.38c1.45,0.01,2.89,0.16,4.29,0.52c17.56,4.39,19.38,20.71,19.19,29.8
					C84.72,123.17,109.62,148.08,103.35,181.22"/>
				<path id="path42_3_" class="st2" d="M-21.43,120.29c1.53-0.77,2.51,0.19,2.51,0.19s22.43,20.47,32.53,32.26
					c8.99,10.55,9.57,28.32-5.86,34.96c-15.43,6.64-28.13-7.81-28.13-7.81c-11.01,12.11-27.68,11.5-35.39,3.3
					c-7.71-8.2-5.02-22.27,0.73-30.09c5.4-7.35,29.13-28.5,32.72-32.07C-22.3,121.02-22.04,120.75-21.43,120.29"/>
			</g>
		</g>
	</g>
</g>
<g id="Layer_2" class="st3">
</g>
</svg>
