<?xml version="1.0" encoding="UTF-8" standalone="no"?><svg xmlns="http://www.w3.org/2000/svg" xmlns:xlink="http://www.w3.org/1999/xlink" style="isolation:isolate" viewBox="0 0 1736.95 293.068" width="1736.95pt" height="293.068pt"><defs><clipPath id="_clipPath_hWUJWe2gs8sYdK1zaOjV2cx4EcYAIVhQ"><rect width="1736.95" height="293.068"/></clipPath></defs><g clip-path="url(#_clipPath_hWUJWe2gs8sYdK1zaOjV2cx4EcYAIVhQ)"><clipPath id="_clipPath_u71iXc0KiBRbcfus5aSOvpyoKnXZFBkB"><path d=" M 0 0 L 0 293.068 L 1736.95 293.068 L 1736.95 0 L 0 0 Z " fill="rgb(255,255,255)"/></clipPath><g clip-path="url(#_clipPath_u71iXc0KiBRbcfus5aSOvpyoKnXZFBkB)"><path d=" M 482.656 181.453 C 488.04 181.453 493.184 180.377 497.85 178.343 C 502.517 176.309 506.345 173.437 509.217 169.609 C 511.969 165.9 513.404 161.473 513.404 156.448 C 513.404 151.064 512.327 146.756 510.293 143.526 C 508.26 140.296 505.149 137.783 501.081 135.869 C 496.893 134.074 491.39 132.519 484.57 131.322 C 478.468 130.245 474.041 128.81 471.289 127.015 C 468.418 125.22 466.982 122.708 466.982 119.238 C 466.982 116.247 468.418 113.734 471.17 111.82 C 473.921 110.025 477.75 109.068 482.775 109.068 C 485.766 109.068 489.116 109.786 492.825 111.102 C 496.534 112.538 499.406 114.093 501.44 115.768 C 502.397 116.486 503.474 116.845 504.67 116.845 C 506.465 116.845 508.14 116.127 509.456 114.692 C 510.772 113.375 511.49 111.7 511.49 109.906 C 511.49 107.513 510.293 105.359 508.02 103.565 C 505.029 101.052 501.44 99.138 497.013 97.582 C 492.586 96.027 487.8 95.309 482.775 95.309 C 477.152 95.309 472.127 96.266 467.58 98.181 C 463.034 100.214 459.444 102.966 456.812 106.675 C 454.18 110.384 452.864 114.811 452.864 119.836 C 452.864 133.595 461.598 141.731 479.066 144.244 C 486.006 145.321 491.031 146.756 494.261 148.79 C 497.491 150.824 499.047 153.696 499.047 157.285 C 499.047 160.276 497.491 162.669 494.261 164.703 C 491.031 166.737 487.082 167.694 482.656 167.694 C 478.468 167.694 474.879 167.096 471.887 165.9 C 468.896 164.703 465.786 162.789 462.555 160.157 C 461.359 159.199 460.043 158.721 458.487 158.721 C 456.573 158.721 454.898 159.439 453.582 160.755 C 452.266 162.191 451.548 163.866 451.548 165.66 C 451.548 167.934 452.625 170.087 454.778 172.001 C 458.727 175.471 462.914 177.864 467.341 179.3 C 471.768 180.736 476.913 181.453 482.656 181.453 Z  M 573.464 116.247 C 571.43 116.247 569.636 116.965 568.32 118.281 C 567.003 119.717 566.286 121.511 566.286 123.545 L 566.286 153.935 C 566.286 158.841 565.209 162.43 563.055 164.703 C 560.902 167.096 557.671 168.293 553.244 168.293 C 548.937 168.293 545.707 167.096 543.553 164.703 C 541.399 162.43 540.323 158.841 540.323 153.935 L 540.323 123.545 C 540.323 121.511 539.605 119.717 538.289 118.281 C 536.973 116.965 535.178 116.247 533.144 116.247 C 531.11 116.247 529.315 116.965 527.999 118.281 C 526.683 119.717 525.965 121.511 525.965 123.545 L 525.965 153.935 C 525.965 162.55 528.358 169.25 533.024 174.155 C 537.69 179.061 544.51 181.453 553.244 181.453 C 561.978 181.453 568.798 179.061 573.584 174.155 C 578.25 169.25 580.643 162.55 580.643 153.935 L 580.643 123.545 C 580.643 121.511 579.925 119.717 578.609 118.281 C 577.293 116.965 575.498 116.247 573.464 116.247 Z  M 629.337 115.05 C 625.628 115.05 622.039 115.888 618.569 117.683 C 615.099 119.477 612.467 121.631 610.553 124.024 L 610.553 123.545 C 610.553 121.511 609.835 119.717 608.519 118.281 C 607.203 116.965 605.408 116.247 603.374 116.247 C 601.34 116.247 599.545 116.965 598.229 118.281 C 596.913 119.717 596.195 121.511 596.195 123.545 L 596.195 196.888 C 596.195 199.041 596.913 200.836 598.229 202.152 C 599.545 203.468 601.34 204.186 603.374 204.186 C 605.408 204.186 607.203 203.468 608.519 202.032 C 609.835 200.716 610.553 198.922 610.553 196.888 L 610.553 173.437 C 612.826 175.71 615.578 177.505 619.047 179.061 C 622.397 180.616 625.987 181.453 629.815 181.453 C 635.199 181.453 640.105 180.018 644.532 177.146 C 648.959 174.394 652.428 170.446 654.941 165.301 C 657.453 160.276 658.77 154.533 658.77 148.192 C 658.77 141.851 657.453 136.108 654.941 131.083 C 652.309 126.058 648.719 122.11 644.293 119.238 C 639.866 116.486 634.841 115.05 629.337 115.05 Z  M 627.542 168.293 C 622.397 168.293 618.09 166.378 614.86 162.55 C 611.629 158.721 609.954 153.935 609.954 148.192 C 609.954 142.449 611.629 137.663 614.86 133.835 C 618.09 130.126 622.397 128.211 627.542 128.211 C 632.687 128.211 636.994 130.126 640.225 133.835 C 643.455 137.663 645.01 142.449 645.01 148.192 C 645.01 153.935 643.335 158.721 640.105 162.55 C 636.875 166.378 632.687 168.293 627.542 168.293 Z  M 703.874 115.05 C 700.165 115.05 696.576 115.888 693.106 117.683 C 689.636 119.477 687.004 121.631 685.09 124.024 L 685.09 123.545 C 685.09 121.511 684.372 119.717 683.056 118.281 C 681.74 116.965 679.945 116.247 677.911 116.247 C 675.877 116.247 674.082 116.965 672.766 118.281 C 671.45 119.717 670.732 121.511 670.732 123.545 L 670.732 196.888 C 670.732 199.041 671.45 200.836 672.766 202.152 C 674.082 203.468 675.877 204.186 677.911 204.186 C 679.945 204.186 681.74 203.468 683.056 202.032 C 684.372 200.716 685.09 198.922 685.09 196.888 L 685.09 173.437 C 687.363 175.71 690.115 177.505 693.585 179.061 C 696.935 180.616 700.524 181.453 704.353 181.453 C 709.737 181.453 714.642 180.018 719.069 177.146 C 723.496 174.394 726.965 170.446 729.478 165.301 C 731.991 160.276 733.307 154.533 733.307 148.192 C 733.307 141.851 731.991 136.108 729.478 131.083 C 726.846 126.058 723.256 122.11 718.83 119.238 C 714.403 116.486 709.378 115.05 703.874 115.05 Z  M 702.079 168.293 C 696.935 168.293 692.627 166.378 689.397 162.55 C 686.167 158.721 684.492 153.935 684.492 148.192 C 684.492 142.449 686.167 137.663 689.397 133.835 C 692.627 130.126 696.935 128.211 702.079 128.211 C 707.224 128.211 711.531 130.126 714.762 133.835 C 717.992 137.663 719.547 142.449 719.547 148.192 C 719.547 153.935 717.872 158.721 714.642 162.55 C 711.412 166.378 707.224 168.293 702.079 168.293 Z  M 806.767 148.312 C 806.767 141.971 805.331 136.228 802.46 131.083 C 799.588 126.058 795.64 122.11 790.735 119.238 C 785.709 116.486 780.206 115.05 774.224 115.05 C 768.122 115.05 762.618 116.486 757.713 119.238 C 752.807 122.11 748.859 126.058 745.987 131.083 C 743.116 136.228 741.68 141.971 741.68 148.312 C 741.68 154.653 743.116 160.396 745.987 165.421 C 748.859 170.566 752.807 174.514 757.713 177.266 C 762.618 180.018 768.122 181.453 774.224 181.453 C 780.206 181.453 785.709 180.018 790.735 177.266 C 795.64 174.514 799.588 170.566 802.46 165.421 C 805.331 160.396 806.767 154.653 806.767 148.312 Z  M 792.41 148.312 C 792.41 152.26 791.572 155.73 790.017 158.721 C 788.342 161.712 786.188 164.105 783.436 165.78 C 780.684 167.455 777.574 168.293 774.224 168.293 C 770.873 168.293 767.882 167.455 765.13 165.78 C 762.379 164.105 760.105 161.712 758.55 158.721 C 756.875 155.73 756.037 152.26 756.037 148.312 C 756.037 144.364 756.875 140.894 758.55 137.783 C 760.105 134.792 762.379 132.399 765.13 130.724 C 767.882 129.049 770.873 128.211 774.224 128.211 C 777.574 128.211 780.684 129.049 783.436 130.724 C 786.188 132.399 788.342 134.792 790.017 137.783 C 791.572 140.894 792.41 144.364 792.41 148.312 Z  M 851.993 115.05 C 848.044 115.05 844.455 115.888 840.985 117.563 C 837.516 119.358 834.883 121.87 833.089 125.101 L 833.089 123.545 C 833.089 121.511 832.371 119.717 831.055 118.281 C 829.739 116.965 827.944 116.247 825.91 116.247 C 823.876 116.247 822.081 116.965 820.765 118.281 C 819.449 119.717 818.731 121.511 818.731 123.545 L 818.731 172.959 C 818.731 174.993 819.449 176.787 820.765 178.103 C 822.081 179.539 823.876 180.257 825.91 180.257 C 827.944 180.257 829.739 179.539 831.055 178.103 C 832.371 176.787 833.089 174.993 833.089 172.959 L 833.089 144.603 C 833.089 141.013 833.687 137.903 835.003 135.27 C 836.199 132.758 837.755 130.844 839.669 129.528 C 841.584 128.211 843.617 127.613 845.651 127.613 C 846.609 127.613 847.566 127.733 848.403 127.972 C 849.241 128.211 849.719 128.331 849.959 128.451 C 851.514 129.049 852.83 129.288 854.027 129.288 C 855.821 129.288 857.257 128.69 858.573 127.374 C 859.889 126.177 860.487 124.383 860.487 121.87 C 860.487 120.076 859.65 118.401 858.095 117.084 C 856.42 115.768 854.386 115.05 851.993 115.05 Z  M 901.525 166.737 C 900.687 166.737 899.73 166.976 898.773 167.335 C 897.696 167.694 896.739 167.814 896.141 167.814 C 894.585 167.814 893.389 167.455 892.551 166.617 C 891.714 165.9 891.235 164.703 891.235 163.028 L 891.235 130.604 L 899.73 130.604 C 901.644 130.604 903.2 130.006 904.516 128.69 C 905.832 127.494 906.43 125.938 906.43 124.143 C 906.43 122.229 905.832 120.674 904.516 119.358 C 903.2 118.042 901.644 117.443 899.73 117.443 L 891.235 117.443 L 891.235 109.786 C 891.235 107.752 890.517 105.957 889.201 104.522 C 887.885 103.206 886.21 102.488 884.176 102.488 C 882.142 102.488 880.347 103.206 879.031 104.522 C 877.596 105.957 876.878 107.752 876.878 109.786 L 876.878 117.443 L 871.374 117.443 C 869.46 117.443 867.904 118.042 866.588 119.238 C 865.272 120.554 864.674 122.11 864.674 123.904 C 864.674 125.819 865.272 127.374 866.588 128.69 C 867.904 130.006 869.46 130.604 871.374 130.604 L 876.878 130.604 L 876.878 163.626 C 876.878 170.446 878.553 174.993 882.022 177.027 C 885.372 179.18 889.56 180.257 894.465 180.257 C 897.457 180.257 900.089 179.539 902.482 177.984 C 904.755 176.548 905.951 174.753 905.951 172.6 C 905.951 170.805 905.473 169.369 904.635 168.293 C 903.678 167.216 902.601 166.737 901.525 166.737 Z  M 1026.912 115.05 C 1022.246 115.05 1018.058 116.367 1014.349 119.118 C 1010.64 121.87 1007.768 124.861 1005.974 128.211 C 1003.222 119.477 996.761 115.05 986.711 115.05 C 982.643 115.05 978.934 116.008 975.704 118.042 C 972.354 120.076 969.602 122.588 967.448 125.46 L 967.448 123.545 C 967.448 121.511 966.73 119.717 965.414 118.281 C 964.098 116.965 962.303 116.247 960.269 116.247 C 958.235 116.247 956.441 116.965 955.125 118.281 C 953.809 119.717 953.091 121.511 953.091 123.545 L 953.091 172.959 C 953.091 174.993 953.809 176.787 955.125 178.103 C 956.441 179.539 958.235 180.257 960.269 180.257 C 962.303 180.257 964.098 179.539 965.414 178.103 C 966.73 176.787 967.448 174.993 967.448 172.959 L 967.448 142.33 C 967.448 138.262 968.764 134.912 971.277 132.16 C 973.789 129.528 977.259 128.211 981.686 128.211 C 985.993 128.211 988.984 129.408 990.779 131.92 C 992.454 134.433 993.291 137.903 993.291 142.33 L 993.291 172.959 C 993.291 174.993 994.009 176.787 995.325 178.103 C 996.642 179.539 998.436 180.257 1000.47 180.257 C 1002.504 180.257 1004.299 179.539 1005.615 178.103 C 1006.931 176.787 1007.649 174.993 1007.649 172.959 L 1007.649 142.33 C 1007.649 138.262 1008.965 134.912 1011.477 132.16 C 1013.99 129.528 1017.46 128.211 1021.887 128.211 C 1026.194 128.211 1029.185 129.408 1030.98 131.92 C 1032.655 134.433 1033.492 137.903 1033.492 142.33 L 1033.492 172.959 C 1033.492 174.993 1034.21 176.787 1035.526 178.103 C 1036.842 179.539 1038.637 180.257 1040.671 180.257 C 1042.705 180.257 1044.5 179.539 1045.816 178.103 C 1047.132 176.787 1047.85 174.993 1047.85 172.959 L 1047.85 142.33 C 1047.85 133.835 1046.294 127.135 1043.303 122.229 C 1040.312 117.443 1034.808 115.05 1026.912 115.05 Z  M 1120.832 146.756 C 1120.832 141.133 1119.397 135.869 1116.645 130.963 C 1113.893 126.058 1110.184 122.229 1105.518 119.358 C 1100.852 116.486 1095.827 115.05 1090.562 115.05 C 1085.178 115.05 1080.153 116.367 1075.487 119.118 C 1070.821 121.87 1066.992 125.938 1064.121 131.083 C 1061.249 136.228 1059.813 142.33 1059.813 149.149 C 1059.813 155.251 1061.129 160.755 1063.881 165.66 C 1066.633 170.566 1070.462 174.514 1075.487 177.266 C 1080.392 180.018 1086.255 181.453 1092.955 181.453 C 1096.784 181.453 1100.612 180.855 1104.321 179.539 C 1108.03 178.223 1111.021 176.668 1113.295 174.873 C 1115.568 173.078 1116.645 171.164 1116.645 169.01 C 1116.645 167.455 1116.047 166.019 1114.85 164.823 C 1113.654 163.626 1112.218 163.028 1110.543 163.028 C 1109.227 163.028 1107.911 163.387 1106.475 164.105 C 1106.116 164.344 1105.398 164.823 1104.321 165.421 C 1103.245 166.139 1101.689 166.737 1099.894 167.335 C 1098.1 167.934 1095.468 168.293 1092.237 168.293 C 1087.93 168.293 1084.101 166.976 1080.632 164.225 C 1077.162 161.592 1075.008 157.883 1074.051 153.217 L 1113.534 153.217 C 1115.448 153.217 1117.123 152.619 1118.559 151.423 C 1119.995 150.226 1120.713 148.671 1120.832 146.756 Z  M 1090.562 128.211 C 1094.271 128.211 1097.621 129.408 1100.612 131.801 C 1103.603 134.194 1105.159 137.065 1105.518 140.415 L 1105.518 141.253 L 1074.171 141.253 C 1075.846 132.519 1081.349 128.211 1090.562 128.211 Z  M 1227.793 148.312 C 1227.793 141.971 1226.357 136.228 1223.486 131.083 C 1220.614 126.058 1216.666 122.11 1211.76 119.238 C 1206.735 116.486 1201.232 115.05 1195.249 115.05 C 1189.148 115.05 1183.644 116.486 1178.738 119.238 C 1173.833 122.11 1169.885 126.058 1167.013 131.083 C 1164.142 136.228 1162.706 141.971 1162.706 148.312 C 1162.706 154.653 1164.142 160.396 1167.013 165.421 C 1169.885 170.566 1173.833 174.514 1178.738 177.266 C 1183.644 180.018 1189.148 181.453 1195.249 181.453 C 1201.232 181.453 1206.735 180.018 1211.76 177.266 C 1216.666 174.514 1220.614 170.566 1223.486 165.421 C 1226.357 160.396 1227.793 154.653 1227.793 148.312 Z  M 1213.435 148.312 C 1213.435 152.26 1212.598 155.73 1211.043 158.721 C 1209.368 161.712 1207.214 164.105 1204.462 165.78 C 1201.71 167.455 1198.599 168.293 1195.249 168.293 C 1191.899 168.293 1188.908 167.455 1186.156 165.78 C 1183.405 164.105 1181.131 161.712 1179.576 158.721 C 1177.901 155.73 1177.063 152.26 1177.063 148.312 C 1177.063 144.364 1177.901 140.894 1179.576 137.783 C 1181.131 134.792 1183.405 132.399 1186.156 130.724 C 1188.908 129.049 1191.899 128.211 1195.249 128.211 C 1198.599 128.211 1201.71 129.049 1204.462 130.724 C 1207.214 132.399 1209.368 134.792 1211.043 137.783 C 1212.598 140.894 1213.435 144.364 1213.435 148.312 Z  M 1273.976 115.05 C 1269.788 115.05 1266.079 116.127 1262.609 118.161 C 1259.14 120.195 1256.268 122.708 1254.115 125.579 L 1254.115 123.545 C 1254.115 121.511 1253.397 119.717 1252.081 118.281 C 1250.765 116.965 1248.97 116.247 1246.936 116.247 C 1244.902 116.247 1243.107 116.965 1241.791 118.281 C 1240.475 119.717 1239.757 121.511 1239.757 123.545 L 1239.757 172.959 C 1239.757 174.993 1240.475 176.787 1241.791 178.103 C 1243.107 179.539 1244.902 180.257 1246.936 180.257 C 1248.97 180.257 1250.765 179.539 1252.081 178.103 C 1253.397 176.787 1254.115 174.993 1254.115 172.959 L 1254.115 142.33 C 1254.115 138.262 1255.431 134.912 1258.063 132.16 C 1260.695 129.528 1264.284 128.211 1268.951 128.211 C 1273.377 128.211 1276.608 129.408 1278.403 131.92 C 1280.197 134.433 1281.154 137.903 1281.154 142.33 L 1281.154 172.959 C 1281.154 174.993 1281.872 176.787 1283.188 178.103 C 1284.504 179.539 1286.299 180.257 1288.333 180.257 C 1290.367 180.257 1292.162 179.539 1293.478 178.103 C 1294.794 176.787 1295.512 174.993 1295.512 172.959 L 1295.512 142.33 C 1295.512 133.835 1293.956 127.135 1290.846 122.229 C 1287.735 117.443 1282.112 115.05 1273.976 115.05 Z  M 1409.891 167.814 L 1383.21 132.519 L 1409.293 107.632 C 1410.729 106.197 1411.446 104.641 1411.446 102.966 C 1411.446 101.291 1410.848 99.736 1409.532 98.181 C 1408.216 96.625 1406.661 95.907 1404.866 95.907 C 1402.832 95.907 1400.798 96.864 1399.003 98.659 L 1360.717 136.347 L 1360.717 103.804 C 1360.717 101.65 1359.999 99.856 1358.683 98.539 C 1357.367 97.223 1355.572 96.505 1353.419 96.505 C 1351.145 96.505 1349.351 97.223 1347.915 98.539 C 1346.479 99.975 1345.761 101.77 1345.761 103.804 L 1345.761 172.959 C 1345.761 174.993 1346.479 176.787 1347.915 178.103 C 1349.231 179.539 1351.026 180.257 1353.179 180.257 C 1355.453 180.257 1357.247 179.539 1358.683 178.223 C 1359.999 176.907 1360.717 175.112 1360.717 172.959 L 1360.717 154.174 L 1372.083 143.287 L 1398.046 177.505 C 1398.644 178.343 1399.482 179.061 1400.439 179.539 C 1401.396 180.018 1402.353 180.257 1403.43 180.257 C 1405.584 180.257 1407.498 179.539 1409.173 178.103 C 1410.729 176.668 1411.566 174.873 1411.566 172.719 C 1411.566 171.882 1411.446 171.044 1411.087 170.087 C 1410.729 169.25 1410.37 168.412 1409.891 167.814 Z  M 1481.918 148.312 C 1481.918 141.971 1480.482 136.228 1477.611 131.083 C 1474.739 126.058 1470.791 122.11 1465.885 119.238 C 1460.86 116.486 1455.357 115.05 1449.374 115.05 C 1443.273 115.05 1437.769 116.486 1432.863 119.238 C 1427.958 122.11 1424.01 126.058 1421.138 131.083 C 1418.267 136.228 1416.831 141.971 1416.831 148.312 C 1416.831 154.653 1418.267 160.396 1421.138 165.421 C 1424.01 170.566 1427.958 174.514 1432.863 177.266 C 1437.769 180.018 1443.273 181.453 1449.374 181.453 C 1455.357 181.453 1460.86 180.018 1465.885 177.266 C 1470.791 174.514 1474.739 170.566 1477.611 165.421 C 1480.482 160.396 1481.918 154.653 1481.918 148.312 Z  M 1467.56 148.312 C 1467.56 152.26 1466.723 155.73 1465.168 158.721 C 1463.493 161.712 1461.339 164.105 1458.587 165.78 C 1455.835 167.455 1452.724 168.293 1449.374 168.293 C 1446.024 168.293 1443.033 167.455 1440.281 165.78 C 1437.53 164.105 1435.256 161.712 1433.701 158.721 C 1432.026 155.73 1431.188 152.26 1431.188 148.312 C 1431.188 144.364 1432.026 140.894 1433.701 137.783 C 1435.256 134.792 1437.53 132.399 1440.281 130.724 C 1443.033 129.049 1446.024 128.211 1449.374 128.211 C 1452.724 128.211 1455.835 129.049 1458.587 130.724 C 1461.339 132.399 1463.493 134.792 1465.168 137.783 C 1466.723 140.894 1467.56 144.364 1467.56 148.312 Z  M 1499.386 150.705 L 1520.204 150.705 C 1522.238 150.705 1524.033 149.987 1525.469 148.671 C 1526.785 147.355 1527.502 145.799 1527.502 143.765 C 1527.502 141.731 1526.785 139.937 1525.469 138.501 C 1524.033 137.185 1522.238 136.467 1520.204 136.467 L 1499.386 136.467 C 1497.352 136.467 1495.557 137.185 1494.241 138.501 C 1492.805 139.817 1492.088 141.492 1492.088 143.526 C 1492.088 145.56 1492.805 147.355 1494.241 148.671 C 1495.557 149.987 1497.352 150.705 1499.386 150.705 Z  M 1572.01 104.402 C 1573.326 104.402 1574.881 104.641 1576.796 105.12 C 1577.274 105.24 1577.753 105.24 1578.231 105.359 C 1578.59 105.479 1579.069 105.479 1579.428 105.479 C 1580.983 105.479 1582.419 104.881 1583.496 103.684 C 1584.573 102.488 1585.171 100.932 1585.171 99.018 C 1585.171 96.505 1584.094 94.711 1581.94 93.514 C 1579.667 92.318 1577.155 91.72 1574.164 91.72 C 1566.387 91.72 1560.524 93.634 1556.456 97.343 C 1552.268 101.052 1550.234 105.957 1550.234 111.94 L 1550.234 117.443 L 1543.774 117.443 C 1541.859 117.443 1540.304 118.042 1538.988 119.238 C 1537.672 120.554 1537.074 122.11 1537.074 124.024 C 1537.074 125.938 1537.672 127.494 1538.988 128.69 C 1540.304 130.006 1541.859 130.604 1543.774 130.604 L 1550.234 130.604 L 1550.234 172.959 C 1550.234 174.993 1550.952 176.787 1552.268 178.103 C 1553.585 179.539 1555.379 180.257 1557.413 180.257 C 1559.447 180.257 1561.242 179.539 1562.558 178.103 C 1563.874 176.787 1564.592 174.993 1564.592 172.959 L 1564.592 130.604 L 1575.48 130.604 C 1577.394 130.604 1578.949 130.006 1580.265 128.69 C 1581.581 127.494 1582.18 125.938 1582.18 124.024 C 1582.18 122.11 1581.581 120.554 1580.265 119.238 C 1578.949 118.042 1577.394 117.443 1575.48 117.443 L 1564.592 117.443 L 1564.592 111.82 C 1564.592 110.025 1565.19 108.231 1566.267 106.675 C 1567.344 105.12 1569.258 104.402 1572.01 104.402 Z  M 1604.673 172.959 L 1604.673 123.545 C 1604.673 121.511 1603.955 119.717 1602.639 118.281 C 1601.323 116.965 1599.528 116.247 1597.494 116.247 C 1595.46 116.247 1593.666 116.965 1592.35 118.281 C 1591.033 119.717 1590.316 121.511 1590.316 123.545 L 1590.316 172.959 C 1590.316 174.993 1591.033 176.787 1592.35 178.103 C 1593.666 179.539 1595.46 180.257 1597.494 180.257 C 1599.528 180.257 1601.323 179.539 1602.639 178.103 C 1603.955 176.787 1604.673 174.993 1604.673 172.959 Z  M 1597.375 108.47 C 1600.126 108.47 1602.16 107.991 1603.357 107.154 C 1604.434 106.316 1605.032 104.761 1605.032 102.488 L 1605.032 100.214 C 1605.032 97.941 1604.434 96.386 1603.357 95.548 C 1602.28 94.711 1600.246 94.232 1597.494 94.232 C 1594.862 94.232 1592.948 94.711 1591.751 95.548 C 1590.555 96.386 1589.957 97.941 1589.957 100.214 L 1589.957 102.488 C 1589.957 104.761 1590.555 106.316 1591.632 107.154 C 1592.708 107.991 1594.623 108.47 1597.375 108.47 Z " fill="rgb(254,254,254)"/><path d=" M 346.394 118.248 C 343.308 101.95 334.533 91.797 325.542 85.518 C 316.243 79.026 305.105 75.69 293.764 75.69 L 132.805 75.69 C 127.206 75.69 125.062 81.157 125.04 83.895 C 125.037 84.252 125.05 85.681 125.05 85.681 C 125.05 85.681 124.786 156.891 125.286 194.925 C 126.805 217.379 149.303 217.371 149.303 217.371 C 149.303 217.371 222.754 217.156 257.981 216.937 C 259.633 216.927 261.283 216.748 262.886 216.348 C 282.942 211.33 285.017 192.698 284.803 182.31 C 325.116 184.55 353.56 156.103 346.394 118.248 Z  M 301.108 155.205 C 292.51 156.28 285.525 155.473 285.525 155.473 L 285.525 102.829 L 296.104 102.829 C 303.095 102.829 309.84 105.741 314.402 111.039 C 317.614 114.769 320.183 120.019 320.183 127.271 C 320.183 144.998 311.048 151.982 301.108 155.205 Z " fill="rgb(254,254,254)"/><path d=" M 203.883 187.841 C 205.633 188.722 206.752 187.627 206.752 187.627 C 206.752 187.627 232.37 164.245 243.911 150.779 C 254.176 138.733 254.845 118.432 237.217 110.847 C 219.589 103.262 205.085 119.771 205.085 119.771 C 192.507 105.937 173.471 106.637 164.666 115.999 C 155.863 125.361 158.937 141.429 165.505 150.372 C 171.671 158.767 198.772 182.922 202.879 187.007 C 202.879 187.007 203.179 187.32 203.883 187.841 Z " fill="rgb(240,102,101)"/></g></g></svg>
